<svg width="132" height="115" viewBox="0 0 132 115" fill="none" xmlns="http://www.w3.org/2000/svg">
<g opacity="0.3">
<mask id="mask0" style="mask-type:alpha" maskUnits="userSpaceOnUse" x="0" y="0" width="11" height="11">
<path d="M5.22838 10.425C8.11593 10.425 10.4568 8.09122 10.4568 5.21245C10.4568 2.33369 8.11593 0 5.22838 0C2.34082 0 0 2.33369 0 5.21245C0 8.09122 2.34082 10.425 5.22838 10.425Z" fill="url(#paint0_linear)"/>
</mask>
<g mask="url(#mask0)">
<path d="M5.22838 10.425C8.11593 10.425 10.4568 8.09122 10.4568 5.21245C10.4568 2.33369 8.11593 0 5.22838 0C2.34082 0 0 2.33369 0 5.21245C0 8.09122 2.34082 10.425 5.22838 10.425Z" fill="url(#paint1_linear)"/>
</g>
<mask id="mask1" style="mask-type:alpha" maskUnits="userSpaceOnUse" x="30" y="0" width="11" height="11">
<path d="M35.5094 10.425C38.397 10.425 40.7378 8.09122 40.7378 5.21245C40.7378 2.33369 38.397 0 35.5094 0C32.6218 0 30.281 2.33369 30.281 5.21245C30.281 8.09122 32.6218 10.425 35.5094 10.425Z" fill="url(#paint2_linear)"/>
</mask>
<g mask="url(#mask1)">
<path d="M35.5094 10.425C38.397 10.425 40.7378 8.09122 40.7378 5.21245C40.7378 2.33369 38.397 0 35.5094 0C32.6218 0 30.281 2.33369 30.281 5.21245C30.281 8.09122 32.6218 10.425 35.5094 10.425Z" fill="url(#paint3_linear)"/>
</g>
<mask id="mask2" style="mask-type:alpha" maskUnits="userSpaceOnUse" x="60" y="0" width="12" height="11">
<path d="M65.7904 10.425C68.678 10.425 71.0188 8.09122 71.0188 5.21245C71.0188 2.33369 68.678 0 65.7904 0C62.9028 0 60.562 2.33369 60.562 5.21245C60.562 8.09122 62.9028 10.425 65.7904 10.425Z" fill="url(#paint4_linear)"/>
</mask>
<g mask="url(#mask2)">
<path d="M65.7904 10.425C68.678 10.425 71.0188 8.09122 71.0188 5.21245C71.0188 2.33369 68.678 0 65.7904 0C62.9028 0 60.562 2.33369 60.562 5.21245C60.562 8.09122 62.9028 10.425 65.7904 10.425Z" fill="url(#paint5_linear)"/>
</g>
<mask id="mask3" style="mask-type:alpha" maskUnits="userSpaceOnUse" x="90" y="0" width="12" height="11">
<path d="M96.0717 10.425C98.9592 10.425 101.3 8.09122 101.3 5.21245C101.3 2.33369 98.9592 0 96.0717 0C93.1841 0 90.8433 2.33369 90.8433 5.21245C90.8433 8.09122 93.1841 10.425 96.0717 10.425Z" fill="url(#paint6_linear)"/>
</mask>
<g mask="url(#mask3)">
<path d="M96.0717 10.425C98.9592 10.425 101.3 8.09122 101.3 5.21245C101.3 2.33369 98.9592 0 96.0717 0C93.1841 0 90.8433 2.33369 90.8433 5.21245C90.8433 8.09122 93.1841 10.425 96.0717 10.425Z" fill="url(#paint7_linear)"/>
</g>
<mask id="mask4" style="mask-type:alpha" maskUnits="userSpaceOnUse" x="121" y="0" width="11" height="11">
<path d="M126.353 10.425C129.24 10.425 131.581 8.09122 131.581 5.21245C131.581 2.33369 129.24 0 126.353 0C123.465 0 121.124 2.33369 121.124 5.21245C121.124 8.09122 123.465 10.425 126.353 10.425Z" fill="url(#paint8_linear)"/>
</mask>
<g mask="url(#mask4)">
<path d="M126.353 10.425C129.24 10.425 131.581 8.09122 131.581 5.21245C131.581 2.33369 129.24 0 126.353 0C123.465 0 121.124 2.33369 121.124 5.21245C121.124 8.09122 123.465 10.425 126.353 10.425Z" fill="url(#paint9_linear)"/>
</g>
<mask id="mask5" style="mask-type:alpha" maskUnits="userSpaceOnUse" x="0" y="26" width="11" height="11">
<path d="M5.22838 36.5957C8.11593 36.5957 10.4568 34.2621 10.4568 31.3833C10.4568 28.5046 8.11593 26.1709 5.22838 26.1709C2.34082 26.1709 0 28.5046 0 31.3833C0 34.2621 2.34082 36.5957 5.22838 36.5957Z" fill="url(#paint10_linear)"/>
</mask>
<g mask="url(#mask5)">
<path d="M5.22838 36.5957C8.11593 36.5957 10.4568 34.2621 10.4568 31.3833C10.4568 28.5046 8.11593 26.1709 5.22838 26.1709C2.34082 26.1709 0 28.5046 0 31.3833C0 34.2621 2.34082 36.5957 5.22838 36.5957Z" fill="url(#paint11_linear)"/>
</g>
<mask id="mask6" style="mask-type:alpha" maskUnits="userSpaceOnUse" x="30" y="26" width="11" height="11">
<path d="M35.5094 36.5957C38.397 36.5957 40.7378 34.2621 40.7378 31.3833C40.7378 28.5046 38.397 26.1709 35.5094 26.1709C32.6218 26.1709 30.281 28.5046 30.281 31.3833C30.281 34.2621 32.6218 36.5957 35.5094 36.5957Z" fill="url(#paint12_linear)"/>
</mask>
<g mask="url(#mask6)">
<path d="M35.5094 36.5957C38.397 36.5957 40.7378 34.2621 40.7378 31.3833C40.7378 28.5046 38.397 26.1709 35.5094 26.1709C32.6218 26.1709 30.281 28.5046 30.281 31.3833C30.281 34.2621 32.6218 36.5957 35.5094 36.5957Z" fill="url(#paint13_linear)"/>
</g>
<mask id="mask7" style="mask-type:alpha" maskUnits="userSpaceOnUse" x="60" y="26" width="12" height="11">
<path d="M65.7904 36.5957C68.678 36.5957 71.0188 34.2621 71.0188 31.3833C71.0188 28.5046 68.678 26.1709 65.7904 26.1709C62.9028 26.1709 60.562 28.5046 60.562 31.3833C60.562 34.2621 62.9028 36.5957 65.7904 36.5957Z" fill="url(#paint14_linear)"/>
</mask>
<g mask="url(#mask7)">
<path d="M65.7904 36.5957C68.678 36.5957 71.0188 34.2621 71.0188 31.3833C71.0188 28.5046 68.678 26.1709 65.7904 26.1709C62.9028 26.1709 60.562 28.5046 60.562 31.3833C60.562 34.2621 62.9028 36.5957 65.7904 36.5957Z" fill="url(#paint15_linear)"/>
</g>
<mask id="mask8" style="mask-type:alpha" maskUnits="userSpaceOnUse" x="90" y="26" width="12" height="11">
<path d="M96.0717 36.5957C98.9592 36.5957 101.3 34.2621 101.3 31.3833C101.3 28.5046 98.9592 26.1709 96.0717 26.1709C93.1841 26.1709 90.8433 28.5046 90.8433 31.3833C90.8433 34.2621 93.1841 36.5957 96.0717 36.5957Z" fill="url(#paint16_linear)"/>
</mask>
<g mask="url(#mask8)">
<path d="M96.0717 36.5957C98.9592 36.5957 101.3 34.2621 101.3 31.3833C101.3 28.5046 98.9592 26.1709 96.0717 26.1709C93.1841 26.1709 90.8433 28.5046 90.8433 31.3833C90.8433 34.2621 93.1841 36.5957 96.0717 36.5957Z" fill="url(#paint17_linear)"/>
</g>
<mask id="mask9" style="mask-type:alpha" maskUnits="userSpaceOnUse" x="121" y="26" width="11" height="11">
<path d="M126.353 36.5957C129.24 36.5957 131.581 34.2621 131.581 31.3833C131.581 28.5046 129.24 26.1709 126.353 26.1709C123.465 26.1709 121.124 28.5046 121.124 31.3833C121.124 34.2621 123.465 36.5957 126.353 36.5957Z" fill="url(#paint18_linear)"/>
</mask>
<g mask="url(#mask9)">
<path d="M126.353 36.5957C129.24 36.5957 131.581 34.2621 131.581 31.3833C131.581 28.5046 129.24 26.1709 126.353 26.1709C123.465 26.1709 121.124 28.5046 121.124 31.3833C121.124 34.2621 123.465 36.5957 126.353 36.5957Z" fill="url(#paint19_linear)"/>
</g>
<mask id="mask10" style="mask-type:alpha" maskUnits="userSpaceOnUse" x="0" y="52" width="11" height="11">
<path d="M5.22838 62.7125C8.11593 62.7125 10.4568 60.3788 10.4568 57.5001C10.4568 54.6213 8.11593 52.2876 5.22838 52.2876C2.34082 52.2876 0 54.6213 0 57.5001C0 60.3788 2.34082 62.7125 5.22838 62.7125Z" fill="url(#paint20_linear)"/>
</mask>
<g mask="url(#mask10)">
<path d="M5.22838 62.7125C8.11593 62.7125 10.4568 60.3788 10.4568 57.5001C10.4568 54.6213 8.11593 52.2876 5.22838 52.2876C2.34082 52.2876 0 54.6213 0 57.5001C0 60.3788 2.34082 62.7125 5.22838 62.7125Z" fill="url(#paint21_linear)"/>
</g>
<mask id="mask11" style="mask-type:alpha" maskUnits="userSpaceOnUse" x="30" y="52" width="11" height="11">
<path d="M35.5094 62.7125C38.397 62.7125 40.7378 60.3788 40.7378 57.5001C40.7378 54.6213 38.397 52.2876 35.5094 52.2876C32.6218 52.2876 30.281 54.6213 30.281 57.5001C30.281 60.3788 32.6218 62.7125 35.5094 62.7125Z" fill="url(#paint22_linear)"/>
</mask>
<g mask="url(#mask11)">
<path d="M35.5094 62.7125C38.397 62.7125 40.7378 60.3788 40.7378 57.5001C40.7378 54.6213 38.397 52.2876 35.5094 52.2876C32.6218 52.2876 30.281 54.6213 30.281 57.5001C30.281 60.3788 32.6218 62.7125 35.5094 62.7125Z" fill="url(#paint23_linear)"/>
</g>
<mask id="mask12" style="mask-type:alpha" maskUnits="userSpaceOnUse" x="60" y="52" width="12" height="11">
<path d="M65.7904 62.7125C68.678 62.7125 71.0188 60.3788 71.0188 57.5001C71.0188 54.6213 68.678 52.2876 65.7904 52.2876C62.9028 52.2876 60.562 54.6213 60.562 57.5001C60.562 60.3788 62.9028 62.7125 65.7904 62.7125Z" fill="url(#paint24_linear)"/>
</mask>
<g mask="url(#mask12)">
<path d="M65.7904 62.7125C68.678 62.7125 71.0188 60.3788 71.0188 57.5001C71.0188 54.6213 68.678 52.2876 65.7904 52.2876C62.9028 52.2876 60.562 54.6213 60.562 57.5001C60.562 60.3788 62.9028 62.7125 65.7904 62.7125Z" fill="url(#paint25_linear)"/>
</g>
<mask id="mask13" style="mask-type:alpha" maskUnits="userSpaceOnUse" x="90" y="52" width="12" height="11">
<path d="M96.0717 62.7125C98.9592 62.7125 101.3 60.3788 101.3 57.5001C101.3 54.6213 98.9592 52.2876 96.0717 52.2876C93.1841 52.2876 90.8433 54.6213 90.8433 57.5001C90.8433 60.3788 93.1841 62.7125 96.0717 62.7125Z" fill="url(#paint26_linear)"/>
</mask>
<g mask="url(#mask13)">
<path d="M96.0717 62.7125C98.9592 62.7125 101.3 60.3788 101.3 57.5001C101.3 54.6213 98.9592 52.2876 96.0717 52.2876C93.1841 52.2876 90.8433 54.6213 90.8433 57.5001C90.8433 60.3788 93.1841 62.7125 96.0717 62.7125Z" fill="url(#paint27_linear)"/>
</g>
<mask id="mask14" style="mask-type:alpha" maskUnits="userSpaceOnUse" x="121" y="52" width="11" height="11">
<path d="M126.353 62.7125C129.24 62.7125 131.581 60.3788 131.581 57.5001C131.581 54.6213 129.24 52.2876 126.353 52.2876C123.465 52.2876 121.124 54.6213 121.124 57.5001C121.124 60.3788 123.465 62.7125 126.353 62.7125Z" fill="url(#paint28_linear)"/>
</mask>
<g mask="url(#mask14)">
<path d="M126.353 62.7125C129.24 62.7125 131.581 60.3788 131.581 57.5001C131.581 54.6213 129.24 52.2876 126.353 52.2876C123.465 52.2876 121.124 54.6213 121.124 57.5001C121.124 60.3788 123.465 62.7125 126.353 62.7125Z" fill="url(#paint29_linear)"/>
</g>
<mask id="mask15" style="mask-type:alpha" maskUnits="userSpaceOnUse" x="0" y="78" width="11" height="11">
<path d="M5.22838 88.8834C8.11593 88.8834 10.4568 86.5497 10.4568 83.6709C10.4568 80.7922 8.11593 78.4585 5.22838 78.4585C2.34082 78.4585 0 80.7922 0 83.6709C0 86.5497 2.34082 88.8834 5.22838 88.8834Z" fill="url(#paint30_linear)"/>
</mask>
<g mask="url(#mask15)">
<path d="M5.22838 88.8834C8.11593 88.8834 10.4568 86.5497 10.4568 83.6709C10.4568 80.7922 8.11593 78.4585 5.22838 78.4585C2.34082 78.4585 0 80.7922 0 83.6709C0 86.5497 2.34082 88.8834 5.22838 88.8834Z" fill="url(#paint31_linear)"/>
</g>
<mask id="mask16" style="mask-type:alpha" maskUnits="userSpaceOnUse" x="30" y="78" width="11" height="11">
<path d="M35.5094 88.8834C38.397 88.8834 40.7378 86.5497 40.7378 83.6709C40.7378 80.7922 38.397 78.4585 35.5094 78.4585C32.6218 78.4585 30.281 80.7922 30.281 83.6709C30.281 86.5497 32.6218 88.8834 35.5094 88.8834Z" fill="url(#paint32_linear)"/>
</mask>
<g mask="url(#mask16)">
<path d="M35.5094 88.8834C38.397 88.8834 40.7378 86.5497 40.7378 83.6709C40.7378 80.7922 38.397 78.4585 35.5094 78.4585C32.6218 78.4585 30.281 80.7922 30.281 83.6709C30.281 86.5497 32.6218 88.8834 35.5094 88.8834Z" fill="url(#paint33_linear)"/>
</g>
<mask id="mask17" style="mask-type:alpha" maskUnits="userSpaceOnUse" x="60" y="78" width="12" height="11">
<path d="M65.7904 88.8834C68.678 88.8834 71.0188 86.5497 71.0188 83.6709C71.0188 80.7922 68.678 78.4585 65.7904 78.4585C62.9028 78.4585 60.562 80.7922 60.562 83.6709C60.562 86.5497 62.9028 88.8834 65.7904 88.8834Z" fill="url(#paint34_linear)"/>
</mask>
<g mask="url(#mask17)">
<path d="M65.7904 88.8834C68.678 88.8834 71.0188 86.5497 71.0188 83.6709C71.0188 80.7922 68.678 78.4585 65.7904 78.4585C62.9028 78.4585 60.562 80.7922 60.562 83.6709C60.562 86.5497 62.9028 88.8834 65.7904 88.8834Z" fill="url(#paint35_linear)"/>
</g>
<mask id="mask18" style="mask-type:alpha" maskUnits="userSpaceOnUse" x="90" y="78" width="12" height="11">
<path d="M96.0717 88.8834C98.9592 88.8834 101.3 86.5497 101.3 83.6709C101.3 80.7922 98.9592 78.4585 96.0717 78.4585C93.1841 78.4585 90.8433 80.7922 90.8433 83.6709C90.8433 86.5497 93.1841 88.8834 96.0717 88.8834Z" fill="url(#paint36_linear)"/>
</mask>
<g mask="url(#mask18)">
<path d="M96.0717 88.8834C98.9592 88.8834 101.3 86.5497 101.3 83.6709C101.3 80.7922 98.9592 78.4585 96.0717 78.4585C93.1841 78.4585 90.8433 80.7922 90.8433 83.6709C90.8433 86.5497 93.1841 88.8834 96.0717 88.8834Z" fill="url(#paint37_linear)"/>
</g>
<mask id="mask19" style="mask-type:alpha" maskUnits="userSpaceOnUse" x="121" y="78" width="11" height="11">
<path d="M126.353 88.8834C129.24 88.8834 131.581 86.5497 131.581 83.6709C131.581 80.7922 129.24 78.4585 126.353 78.4585C123.465 78.4585 121.124 80.7922 121.124 83.6709C121.124 86.5497 123.465 88.8834 126.353 88.8834Z" fill="url(#paint38_linear)"/>
</mask>
<g mask="url(#mask19)">
<path d="M126.353 88.8834C129.24 88.8834 131.581 86.5497 131.581 83.6709C131.581 80.7922 129.24 78.4585 126.353 78.4585C123.465 78.4585 121.124 80.7922 121.124 83.6709C121.124 86.5497 123.465 88.8834 126.353 88.8834Z" fill="url(#paint39_linear)"/>
</g>
<mask id="mask20" style="mask-type:alpha" maskUnits="userSpaceOnUse" x="0" y="104" width="11" height="11">
<path d="M5.22838 115C8.11593 115 10.4568 112.666 10.4568 109.787C10.4568 106.909 8.11593 104.575 5.22838 104.575C2.34082 104.575 0 106.909 0 109.787C0 112.666 2.34082 115 5.22838 115Z" fill="url(#paint40_linear)"/>
</mask>
<g mask="url(#mask20)">
<path d="M5.22838 115C8.11593 115 10.4568 112.666 10.4568 109.787C10.4568 106.909 8.11593 104.575 5.22838 104.575C2.34082 104.575 0 106.909 0 109.787C0 112.666 2.34082 115 5.22838 115Z" fill="url(#paint41_linear)"/>
</g>
<mask id="mask21" style="mask-type:alpha" maskUnits="userSpaceOnUse" x="30" y="104" width="11" height="11">
<path d="M35.5094 115C38.397 115 40.7378 112.666 40.7378 109.787C40.7378 106.909 38.397 104.575 35.5094 104.575C32.6218 104.575 30.281 106.909 30.281 109.787C30.281 112.666 32.6218 115 35.5094 115Z" fill="url(#paint42_linear)"/>
</mask>
<g mask="url(#mask21)">
<path d="M35.5094 115C38.397 115 40.7378 112.666 40.7378 109.787C40.7378 106.909 38.397 104.575 35.5094 104.575C32.6218 104.575 30.281 106.909 30.281 109.787C30.281 112.666 32.6218 115 35.5094 115Z" fill="url(#paint43_linear)"/>
</g>
<mask id="mask22" style="mask-type:alpha" maskUnits="userSpaceOnUse" x="60" y="104" width="12" height="11">
<path d="M65.7904 115C68.678 115 71.0188 112.666 71.0188 109.787C71.0188 106.909 68.678 104.575 65.7904 104.575C62.9028 104.575 60.562 106.909 60.562 109.787C60.562 112.666 62.9028 115 65.7904 115Z" fill="url(#paint44_linear)"/>
</mask>
<g mask="url(#mask22)">
<path d="M65.7904 115C68.678 115 71.0188 112.666 71.0188 109.787C71.0188 106.909 68.678 104.575 65.7904 104.575C62.9028 104.575 60.562 106.909 60.562 109.787C60.562 112.666 62.9028 115 65.7904 115Z" fill="url(#paint45_linear)"/>
</g>
<mask id="mask23" style="mask-type:alpha" maskUnits="userSpaceOnUse" x="90" y="104" width="12" height="11">
<path d="M96.0717 115C98.9592 115 101.3 112.666 101.3 109.787C101.3 106.909 98.9592 104.575 96.0717 104.575C93.1841 104.575 90.8433 106.909 90.8433 109.787C90.8433 112.666 93.1841 115 96.0717 115Z" fill="url(#paint46_linear)"/>
</mask>
<g mask="url(#mask23)">
<path d="M96.0717 115C98.9592 115 101.3 112.666 101.3 109.787C101.3 106.909 98.9592 104.575 96.0717 104.575C93.1841 104.575 90.8433 106.909 90.8433 109.787C90.8433 112.666 93.1841 115 96.0717 115Z" fill="url(#paint47_linear)"/>
</g>
<mask id="mask24" style="mask-type:alpha" maskUnits="userSpaceOnUse" x="121" y="104" width="11" height="11">
<path d="M126.353 115C129.24 115 131.581 112.666 131.581 109.787C131.581 106.909 129.24 104.575 126.353 104.575C123.465 104.575 121.124 106.909 121.124 109.787C121.124 112.666 123.465 115 126.353 115Z" fill="url(#paint48_linear)"/>
</mask>
<g mask="url(#mask24)">
<path d="M126.353 115C129.24 115 131.581 112.666 131.581 109.787C131.581 106.909 129.24 104.575 126.353 104.575C123.465 104.575 121.124 106.909 121.124 109.787C121.124 112.666 123.465 115 126.353 115Z" fill="url(#paint49_linear)"/>
</g>
</g>
<defs>
<linearGradient id="paint0_linear" x1="54.996" y1="131.134" x2="-16.4059" y2="-50.67" gradientUnits="userSpaceOnUse">
<stop/>
<stop offset="1" stop-color="white"/>
</linearGradient>
<linearGradient id="paint1_linear" x1="54.996" y1="131.134" x2="-16.4059" y2="-50.67" gradientUnits="userSpaceOnUse">
<stop stop-color="#97C3F9"/>
<stop offset="1" stop-color="#93C1F9"/>
</linearGradient>
<linearGradient id="paint2_linear" x1="81.2004" y1="120.843" x2="9.79864" y2="-60.9613" gradientUnits="userSpaceOnUse">
<stop/>
<stop offset="1" stop-color="white"/>
</linearGradient>
<linearGradient id="paint3_linear" x1="81.2004" y1="120.843" x2="9.79864" y2="-60.9613" gradientUnits="userSpaceOnUse">
<stop stop-color="#97C3F9"/>
<stop offset="1" stop-color="#93C1F9"/>
</linearGradient>
<linearGradient id="paint4_linear" x1="107.405" y1="110.551" x2="36.003" y2="-71.2526" gradientUnits="userSpaceOnUse">
<stop/>
<stop offset="1" stop-color="white"/>
</linearGradient>
<linearGradient id="paint5_linear" x1="107.405" y1="110.551" x2="36.003" y2="-71.2526" gradientUnits="userSpaceOnUse">
<stop stop-color="#97C3F9"/>
<stop offset="1" stop-color="#93C1F9"/>
</linearGradient>
<linearGradient id="paint6_linear" x1="133.609" y1="100.26" x2="62.2075" y2="-81.5445" gradientUnits="userSpaceOnUse">
<stop/>
<stop offset="1" stop-color="white"/>
</linearGradient>
<linearGradient id="paint7_linear" x1="133.609" y1="100.26" x2="62.2075" y2="-81.5445" gradientUnits="userSpaceOnUse">
<stop stop-color="#97C3F9"/>
<stop offset="1" stop-color="#93C1F9"/>
</linearGradient>
<linearGradient id="paint8_linear" x1="159.813" y1="89.9681" x2="88.4117" y2="-91.836" gradientUnits="userSpaceOnUse">
<stop/>
<stop offset="1" stop-color="white"/>
</linearGradient>
<linearGradient id="paint9_linear" x1="159.813" y1="89.9681" x2="88.4117" y2="-91.836" gradientUnits="userSpaceOnUse">
<stop stop-color="#97C3F9"/>
<stop offset="1" stop-color="#93C1F9"/>
</linearGradient>
<linearGradient id="paint10_linear" x1="46.0538" y1="134.645" x2="-25.3466" y2="-47.1571" gradientUnits="userSpaceOnUse">
<stop/>
<stop offset="1" stop-color="white"/>
</linearGradient>
<linearGradient id="paint11_linear" x1="46.0538" y1="134.645" x2="-25.3466" y2="-47.1571" gradientUnits="userSpaceOnUse">
<stop stop-color="#97C3F9"/>
<stop offset="1" stop-color="#93C1F9"/>
</linearGradient>
<linearGradient id="paint12_linear" x1="72.258" y1="124.353" x2="0.857696" y2="-57.449" gradientUnits="userSpaceOnUse">
<stop/>
<stop offset="1" stop-color="white"/>
</linearGradient>
<linearGradient id="paint13_linear" x1="72.258" y1="124.353" x2="0.857696" y2="-57.449" gradientUnits="userSpaceOnUse">
<stop stop-color="#97C3F9"/>
<stop offset="1" stop-color="#93C1F9"/>
</linearGradient>
<linearGradient id="paint14_linear" x1="98.4623" y1="114.062" x2="27.062" y2="-67.7404" gradientUnits="userSpaceOnUse">
<stop/>
<stop offset="1" stop-color="white"/>
</linearGradient>
<linearGradient id="paint15_linear" x1="98.4623" y1="114.062" x2="27.062" y2="-67.7404" gradientUnits="userSpaceOnUse">
<stop stop-color="#97C3F9"/>
<stop offset="1" stop-color="#93C1F9"/>
</linearGradient>
<linearGradient id="paint16_linear" x1="124.667" y1="103.771" x2="53.2665" y2="-78.0319" gradientUnits="userSpaceOnUse">
<stop/>
<stop offset="1" stop-color="white"/>
</linearGradient>
<linearGradient id="paint17_linear" x1="124.667" y1="103.771" x2="53.2665" y2="-78.0319" gradientUnits="userSpaceOnUse">
<stop stop-color="#97C3F9"/>
<stop offset="1" stop-color="#93C1F9"/>
</linearGradient>
<linearGradient id="paint18_linear" x1="150.871" y1="93.4793" x2="79.4708" y2="-88.3232" gradientUnits="userSpaceOnUse">
<stop/>
<stop offset="1" stop-color="white"/>
</linearGradient>
<linearGradient id="paint19_linear" x1="150.871" y1="93.4793" x2="79.4708" y2="-88.3232" gradientUnits="userSpaceOnUse">
<stop stop-color="#97C3F9"/>
<stop offset="1" stop-color="#93C1F9"/>
</linearGradient>
<linearGradient id="paint20_linear" x1="37.1113" y1="138.158" x2="-34.2902" y2="-43.6456" gradientUnits="userSpaceOnUse">
<stop/>
<stop offset="1" stop-color="white"/>
</linearGradient>
<linearGradient id="paint21_linear" x1="37.1113" y1="138.158" x2="-34.2902" y2="-43.6456" gradientUnits="userSpaceOnUse">
<stop stop-color="#97C3F9"/>
<stop offset="1" stop-color="#93C1F9"/>
</linearGradient>
<linearGradient id="paint22_linear" x1="63.3157" y1="127.866" x2="-8.08579" y2="-53.9372" gradientUnits="userSpaceOnUse">
<stop/>
<stop offset="1" stop-color="white"/>
</linearGradient>
<linearGradient id="paint23_linear" x1="63.3157" y1="127.866" x2="-8.08579" y2="-53.9372" gradientUnits="userSpaceOnUse">
<stop stop-color="#97C3F9"/>
<stop offset="1" stop-color="#93C1F9"/>
</linearGradient>
<linearGradient id="paint24_linear" x1="89.5199" y1="117.575" x2="18.1186" y2="-64.2286" gradientUnits="userSpaceOnUse">
<stop/>
<stop offset="1" stop-color="white"/>
</linearGradient>
<linearGradient id="paint25_linear" x1="89.5199" y1="117.575" x2="18.1186" y2="-64.2286" gradientUnits="userSpaceOnUse">
<stop stop-color="#97C3F9"/>
<stop offset="1" stop-color="#93C1F9"/>
</linearGradient>
<linearGradient id="paint26_linear" x1="115.724" y1="107.283" x2="44.323" y2="-74.5203" gradientUnits="userSpaceOnUse">
<stop/>
<stop offset="1" stop-color="white"/>
</linearGradient>
<linearGradient id="paint27_linear" x1="115.724" y1="107.283" x2="44.323" y2="-74.5203" gradientUnits="userSpaceOnUse">
<stop stop-color="#97C3F9"/>
<stop offset="1" stop-color="#93C1F9"/>
</linearGradient>
<linearGradient id="paint28_linear" x1="141.929" y1="96.9919" x2="70.5273" y2="-84.8117" gradientUnits="userSpaceOnUse">
<stop/>
<stop offset="1" stop-color="white"/>
</linearGradient>
<linearGradient id="paint29_linear" x1="141.929" y1="96.9919" x2="70.5273" y2="-84.8117" gradientUnits="userSpaceOnUse">
<stop stop-color="#97C3F9"/>
<stop offset="1" stop-color="#93C1F9"/>
</linearGradient>
<linearGradient id="paint30_linear" x1="28.1689" y1="141.67" x2="-43.232" y2="-40.1334" gradientUnits="userSpaceOnUse">
<stop/>
<stop offset="1" stop-color="white"/>
</linearGradient>
<linearGradient id="paint31_linear" x1="28.1689" y1="141.67" x2="-43.232" y2="-40.1334" gradientUnits="userSpaceOnUse">
<stop stop-color="#97C3F9"/>
<stop offset="1" stop-color="#93C1F9"/>
</linearGradient>
<linearGradient id="paint32_linear" x1="54.3733" y1="131.378" x2="-17.0276" y2="-50.4248" gradientUnits="userSpaceOnUse">
<stop/>
<stop offset="1" stop-color="white"/>
</linearGradient>
<linearGradient id="paint33_linear" x1="54.3733" y1="131.378" x2="-17.0276" y2="-50.4248" gradientUnits="userSpaceOnUse">
<stop stop-color="#97C3F9"/>
<stop offset="1" stop-color="#93C1F9"/>
</linearGradient>
<linearGradient id="paint34_linear" x1="80.5775" y1="121.087" x2="9.17671" y2="-60.7162" gradientUnits="userSpaceOnUse">
<stop/>
<stop offset="1" stop-color="white"/>
</linearGradient>
<linearGradient id="paint35_linear" x1="80.5775" y1="121.087" x2="9.17671" y2="-60.7162" gradientUnits="userSpaceOnUse">
<stop stop-color="#97C3F9"/>
<stop offset="1" stop-color="#93C1F9"/>
</linearGradient>
<linearGradient id="paint36_linear" x1="106.782" y1="110.795" x2="35.3812" y2="-71.0078" gradientUnits="userSpaceOnUse">
<stop/>
<stop offset="1" stop-color="white"/>
</linearGradient>
<linearGradient id="paint37_linear" x1="106.782" y1="110.795" x2="35.3812" y2="-71.0078" gradientUnits="userSpaceOnUse">
<stop stop-color="#97C3F9"/>
<stop offset="1" stop-color="#93C1F9"/>
</linearGradient>
<linearGradient id="paint38_linear" x1="132.986" y1="100.504" x2="61.5855" y2="-81.2992" gradientUnits="userSpaceOnUse">
<stop/>
<stop offset="1" stop-color="white"/>
</linearGradient>
<linearGradient id="paint39_linear" x1="132.986" y1="100.504" x2="61.5855" y2="-81.2992" gradientUnits="userSpaceOnUse">
<stop stop-color="#97C3F9"/>
<stop offset="1" stop-color="#93C1F9"/>
</linearGradient>
<linearGradient id="paint40_linear" x1="19.2266" y1="145.182" x2="-52.1747" y2="-36.6217" gradientUnits="userSpaceOnUse">
<stop/>
<stop offset="1" stop-color="white"/>
</linearGradient>
<linearGradient id="paint41_linear" x1="19.2266" y1="145.182" x2="-52.1747" y2="-36.6217" gradientUnits="userSpaceOnUse">
<stop stop-color="#97C3F9"/>
<stop offset="1" stop-color="#93C1F9"/>
</linearGradient>
<linearGradient id="paint42_linear" x1="45.4309" y1="134.89" x2="-25.9703" y2="-46.9131" gradientUnits="userSpaceOnUse">
<stop/>
<stop offset="1" stop-color="white"/>
</linearGradient>
<linearGradient id="paint43_linear" x1="45.4309" y1="134.89" x2="-25.9703" y2="-46.9131" gradientUnits="userSpaceOnUse">
<stop stop-color="#97C3F9"/>
<stop offset="1" stop-color="#93C1F9"/>
</linearGradient>
<linearGradient id="paint44_linear" x1="71.6352" y1="124.599" x2="0.234" y2="-57.2044" gradientUnits="userSpaceOnUse">
<stop/>
<stop offset="1" stop-color="white"/>
</linearGradient>
<linearGradient id="paint45_linear" x1="71.6352" y1="124.599" x2="0.234" y2="-57.2044" gradientUnits="userSpaceOnUse">
<stop stop-color="#97C3F9"/>
<stop offset="1" stop-color="#93C1F9"/>
</linearGradient>
<linearGradient id="paint46_linear" x1="97.8397" y1="114.307" x2="26.4385" y2="-67.4961" gradientUnits="userSpaceOnUse">
<stop/>
<stop offset="1" stop-color="white"/>
</linearGradient>
<linearGradient id="paint47_linear" x1="97.8397" y1="114.307" x2="26.4385" y2="-67.4961" gradientUnits="userSpaceOnUse">
<stop stop-color="#97C3F9"/>
<stop offset="1" stop-color="#93C1F9"/>
</linearGradient>
<linearGradient id="paint48_linear" x1="124.044" y1="104.016" x2="52.6427" y2="-77.7875" gradientUnits="userSpaceOnUse">
<stop/>
<stop offset="1" stop-color="white"/>
</linearGradient>
<linearGradient id="paint49_linear" x1="124.044" y1="104.016" x2="52.6427" y2="-77.7875" gradientUnits="userSpaceOnUse">
<stop stop-color="#97C3F9"/>
<stop offset="1" stop-color="#93C1F9"/>
</linearGradient>
</defs>
</svg>
