<svg width="67" height="59" viewBox="0 0 67 59" fill="none" xmlns="http://www.w3.org/2000/svg">
<path d="M32.3966 58.5242C30.5562 58.2926 28.8407 57.4266 27.5104 56.0575C26.0489 54.5535 25.2679 52.7726 25.1603 50.6989C24.9528 46.7019 27.6326 43.1838 31.6276 42.2085C32.1613 42.0783 32.4448 42.0528 33.3998 42.0495C34.9292 42.0433 35.9506 42.2628 37.105 42.8419C39.9379 44.263 41.6487 46.8783 41.7698 49.973C41.8905 53.0549 40.37 55.8294 37.6708 57.4528C36.1653 58.3583 34.2197 58.7535 32.3966 58.5241V58.5242ZM23.7699 39.9432C23.4021 39.7613 20.164 36.5357 19.9885 36.1763C19.8723 35.9381 19.8578 35.7952 19.8773 35.0771C19.8959 34.396 19.9242 34.2045 20.0406 33.9813C20.2044 33.6675 21.4867 32.4157 22.4022 31.676C24.4153 30.0493 27.0613 28.7682 29.5879 28.1968C30.9822 27.8815 31.8102 27.7969 33.5 27.7969C35.1899 27.7969 36.0179 27.8815 37.4122 28.1968C39.9386 28.7682 42.5829 30.0484 44.5982 31.676C45.6322 32.511 46.8456 33.7151 46.9732 34.0329C47.1151 34.3861 47.1777 35.7398 47.0677 36.0798C46.9618 36.4071 43.631 39.7528 43.2186 39.9459C42.845 40.1208 42.198 40.1251 41.8224 39.9562C41.6625 39.8839 41.3746 39.635 41.1202 39.3493C40.5297 38.6863 39.6058 37.9327 38.7658 37.429C35.0267 35.1871 30.2883 35.5586 26.9215 38.3576C26.5857 38.6367 26.117 39.083 25.8798 39.3493C25.6254 39.635 25.3375 39.8838 25.1776 39.9562C24.8042 40.1251 24.1241 40.1193 23.7697 39.9438L23.7699 39.9432ZM14.0396 30.2978C13.6893 30.1208 10.2506 26.6618 10.1634 26.3986C10.1233 26.2777 10.1018 25.8361 10.1142 25.3881C10.1307 24.7399 10.162 24.5428 10.2755 24.325C10.5453 23.808 13.006 21.5342 14.6141 20.3161C17.1792 18.3728 20.6482 16.5721 23.7527 15.5723C30.7374 13.3229 38.3548 13.5631 45.1028 16.2455C47.6071 17.241 50.3519 18.775 52.3861 20.3161C53.9942 21.5342 56.4549 23.808 56.7247 24.325C56.8382 24.5428 56.8682 24.7399 56.886 25.3881C56.8984 25.8371 56.8757 26.2776 56.8366 26.3991C56.7425 26.6836 53.2339 30.1894 52.9076 30.3252C52.6036 30.4517 51.9593 30.4476 51.6316 30.317C51.4559 30.247 51.1476 29.9749 50.6923 29.488C48.2971 26.927 44.824 24.7351 41.2401 23.5226C38.6337 22.6409 36.3339 22.2681 33.5001 22.2681C30.6663 22.2681 28.3665 22.6409 25.7601 23.5226C22.1761 24.7351 18.7031 26.927 16.3079 29.488C15.8526 29.9749 15.5443 30.247 15.3685 30.317C15.0154 30.4577 14.3369 30.4478 14.0396 30.2984L14.0396 30.2978ZM4.24251 20.498C3.8544 20.3221 0.575353 17.0144 0.471978 16.6947C0.42607 16.5525 0.404155 16.1396 0.41739 15.6621C0.433933 15.0145 0.46515 14.8168 0.578472 14.6C0.78423 14.206 2.90033 12.1779 4.4767 10.8638C10.9605 5.45874 18.7287 1.99554 27.0134 0.816455C29.5509 0.455328 30.246 0.411987 33.5002 0.411987C36.7545 0.411987 37.4496 0.455431 39.9871 0.816455C48.2718 1.99554 56.04 5.45874 62.5237 10.8638C64.1001 12.1779 66.2162 14.206 66.422 14.6C66.5353 14.8168 66.5653 15.0145 66.5831 15.6621C66.5955 16.1396 66.5727 16.5526 66.5285 16.6947C66.4182 17.0357 63.1409 20.3261 62.7357 20.5026C62.3475 20.6717 61.7145 20.6679 61.3308 20.4943C61.1451 20.4104 60.6506 19.9832 59.9599 19.3105C57.0233 16.4503 54.129 14.3771 50.5534 12.5727C46.1297 10.3404 41.7486 9.10978 36.5097 8.6278C34.5538 8.44796 31.042 8.53078 28.7857 8.8101C24.4761 9.34385 20.3558 10.6003 16.4474 12.5726C12.8718 14.377 9.97749 16.4501 7.04084 19.3104C6.35017 19.9831 5.85541 20.4103 5.66992 20.4942C5.29296 20.6645 4.61463 20.6662 4.2428 20.4983L4.24251 20.498Z" fill="#DB4437"/>
</svg>
