<svg width="107" height="15" viewBox="0 0 107 15" fill="none" xmlns="http://www.w3.org/2000/svg">
<g clip-path="url(#clip0)">
<path fill-rule="evenodd" clip-rule="evenodd" d="M0.39 11.77C0.39 11.85 0.39 11.95 0.61 12.02C0.902585 12.1269 1.20909 12.1909 1.52 12.21C2.0849 12.2323 2.65066 12.2022 3.21 12.12L22.92 9.25001C35.0042 7.52331 47.1847 6.55475 59.39 6.35001C64.27 6.28001 69.14 6.35001 74.02 6.52001C81.33 6.75001 88.64 7.15001 95.96 8.07001C96.0198 8.07986 96.0809 8.07785 96.1398 8.06408C96.1988 8.05031 96.2545 8.02507 96.3037 7.98978C96.3529 7.95449 96.3947 7.90986 96.4267 7.85843C96.4586 7.80699 96.4801 7.74976 96.49 7.69001C96.4998 7.63026 96.4978 7.56916 96.4841 7.51018C96.4703 7.45121 96.4451 7.39553 96.4098 7.34631C96.3745 7.2971 96.3298 7.25531 96.2784 7.22335C96.227 7.19138 96.1698 7.16986 96.11 7.16001C88.8624 5.67294 81.5328 4.61775 74.16 4.00001C69.23 3.61001 64.3 3.50001 59.36 3.51001C47.0285 3.61489 34.7177 4.54363 22.51 6.29001C17.88 6.94001 13.21 7.47001 8.62 8.40001C6.62 8.79001 4.69 9.33001 2.74 9.84001C2.1748 9.97003 1.62747 10.1681 1.11 10.43C0.781281 10.5797 0.493234 10.806 0.27 11.09C-0.0599999 11.67 -0.0499998 11.64 0.1 11.7C0.103588 11.7212 0.111405 11.7414 0.122985 11.7595C0.134566 11.7776 0.149673 11.7932 0.167404 11.8053C0.185136 11.8175 0.20513 11.8259 0.226192 11.8302C0.247255 11.8344 0.268956 11.8343 0.29 11.83C0.329365 11.8224 0.364784 11.8012 0.39 11.77Z" fill="#1B7BF6"/>
<path fill-rule="evenodd" clip-rule="evenodd" d="M100.26 6.55001C96.48 7.75001 91.51 9.25 90.7 9.55C89.5671 9.96271 88.4615 10.447 87.39 11C86.3306 11.4669 85.3248 12.047 84.39 12.73C84.2778 12.8355 84.1981 12.9708 84.16 13.12C84.01 13.49 84.24 13.56 84.16 13.53C83.16 13.34 83.31 14.31 85.16 14.39C86.3213 14.2155 87.4523 13.8789 88.52 13.39C89.99 12.87 91.34 12.23 91.59 12.16C92.67 11.84 101.03 9.62 104.38 8.57C105.07 8.35 105.57 8.16001 105.81 8.06001C106.026 7.96667 106.22 7.82962 106.38 7.65749C106.54 7.48537 106.663 7.28193 106.74 7.06001C106.883 6.71105 106.905 6.32401 106.802 5.96121C106.698 5.59841 106.476 5.28097 106.17 5.06001C105.267 4.59717 104.305 4.26069 103.31 4.06001C100.57 3.37001 97.88 2.53001 95.14 1.85001C92.4 1.17001 89.49 0.610005 86.7 5.14952e-06C86.4688 -0.0186475 86.2383 0.0436491 86.048 0.176229C85.8577 0.308809 85.7194 0.503425 85.6567 0.726759C85.5941 0.950092 85.6111 1.18825 85.7047 1.40046C85.7983 1.61267 85.9628 1.78573 86.17 1.89001C88.85 2.89001 91.48 3.89001 94.17 4.78001C96.19 5.47001 98.22 6.00001 100.26 6.55001Z" fill="#1B7BF6"/>
</g>
<defs>
<clipPath id="clip0">
<rect width="106.76" height="14.33" fill="white"/>
</clipPath>
</defs>
</svg>
