<svg width="52" height="52" viewBox="0 0 52 52" fill="none" xmlns="http://www.w3.org/2000/svg">
<circle cx="25.5405" cy="25.5405" r="25.5405" fill="#02D26C"/>
<path d="M26.9636 8.51355H26.9558C18.3498 8.51355 11.3516 15.5138 11.3516 24.1217C11.3516 27.5359 12.4519 30.7005 14.323 33.27L12.3778 39.0684L18.3772 37.1505C20.8452 38.7855 23.7893 39.7298 26.9636 39.7298C35.5695 39.7298 42.5678 32.7276 42.5678 24.1217C42.5678 15.5157 35.5695 8.51355 26.9636 8.51355ZM36.0455 30.5541C35.669 31.6175 34.1745 32.4993 32.9824 32.7568C32.1669 32.9305 31.1017 33.069 27.5157 31.5823C22.9289 29.682 19.975 25.0211 19.7448 24.7187C19.5244 24.4163 17.8914 22.2506 17.8914 20.0109C17.8914 17.7711 19.0288 16.6805 19.4873 16.2122C19.8638 15.8279 20.4862 15.6523 21.0832 15.6523C21.2764 15.6523 21.45 15.6621 21.6061 15.6699C22.0646 15.6894 22.2948 15.7167 22.5972 16.4405C22.9737 17.3477 23.8907 19.5875 24 19.8177C24.1112 20.0479 24.2224 20.3601 24.0663 20.6625C23.92 20.9747 23.7912 21.1132 23.561 21.3785C23.3308 21.6439 23.1123 21.8468 22.8821 22.1316C22.6713 22.3794 22.4333 22.6447 22.6987 23.1032C22.964 23.552 23.881 25.0484 25.2311 26.2502C26.9733 27.8013 28.3859 28.2968 28.8912 28.5075C29.2677 28.6636 29.7165 28.6265 29.9915 28.3339C30.3408 27.9574 30.7719 27.333 31.2109 26.7185C31.5231 26.2775 31.9172 26.2229 32.3308 26.379C32.7522 26.5253 34.9822 27.6276 35.4407 27.8559C35.8992 28.0861 36.2016 28.1954 36.3128 28.3885C36.4221 28.5817 36.4221 29.4889 36.0455 30.5541Z" fill="white"/>
</svg>
