<svg width="52" height="52" viewBox="0 0 52 52" fill="none" xmlns="http://www.w3.org/2000/svg">
<circle cx="25.5405" cy="25.5405" r="25.5405" fill="#1B7BF6"/>
<path d="M35.5209 8.51343H15.5588C14.8014 8.51343 14.1885 9.08961 14.1885 9.80147V41.2794C14.1885 41.9913 14.8014 42.5675 15.5588 42.5675H35.5209C36.2782 42.5675 36.8912 41.9913 36.8912 41.2794V9.80147C36.8912 9.08961 36.2773 8.51343 35.5209 8.51343ZM22.0383 10.084H29.0422C29.2935 10.084 29.499 10.2763 29.499 10.5133C29.499 10.7503 29.2935 10.9427 29.0422 10.9427H22.0383C21.7862 10.9427 21.5816 10.7503 21.5816 10.5133C21.5816 10.2763 21.7853 10.084 22.0383 10.084ZM25.5398 41.1403C24.8675 41.1403 24.3221 40.6268 24.3221 39.9957C24.3221 39.3646 24.8675 38.8502 25.5398 38.8502C26.2122 38.8502 26.7575 39.3646 26.7575 39.9948C26.7575 40.6251 26.2122 41.1403 25.5398 41.1403ZM34.1506 37.5622H16.929V12.0873H34.1506V37.5622Z" fill="white"/>
</svg>
