<svg width="24" height="24" viewBox="0 0 24 24" fill="none" xmlns="http://www.w3.org/2000/svg">
<circle cx="12" cy="12" r="12" fill="#01B0F1"/>
<path d="M18.7945 13.4515C19.873 8.60545 15.6271 4.20308 10.6408 5.04818C7.93386 3.36852 4.32959 5.2666 4.32959 8.48694C4.32959 9.23587 4.53624 9.93702 4.89555 10.5414C3.89333 15.3986 8.17403 19.7377 13.156 18.8348C16.6777 20.6969 20.5693 16.9833 18.7945 13.4515ZM14.0546 16.374C12.7464 16.9119 10.5936 16.9151 9.29105 16.2331C7.43368 15.2428 7.10354 13.0134 8.70585 13.0134C9.91348 13.0134 9.53121 14.4213 10.7506 14.9953C11.3104 15.254 12.5137 15.2807 13.2131 14.8091C13.9038 14.3468 13.8405 13.6196 13.465 13.2722C12.4702 12.3538 9.62368 12.7187 8.32234 11.111C7.757 10.4136 7.65026 9.18313 8.3453 8.29086C9.55666 6.73219 13.1113 6.63726 14.6398 7.81433C16.0509 8.90639 15.6699 10.3559 14.5312 10.3559C13.1616 10.3559 13.8814 8.56388 11.6703 8.56388C10.0674 8.56388 9.43689 9.70372 10.5657 10.2584C12.096 11.0185 15.9957 10.7648 15.9957 13.735C15.9926 14.9711 15.2349 15.8925 14.0546 16.374Z" fill="white"/>
</svg>
